<?xml version="1.0" standalone="no"?>
<!DOCTYPE svg PUBLIC "-//W3C//DTD SVG 20010904//EN"
 "http://www.w3.org/TR/2001/REC-SVG-20010904/DTD/svg10.dtd">
<svg version="1.0" xmlns="http://www.w3.org/2000/svg"
 width="960.000000pt" height="960.000000pt" viewBox="0 0 960.000000 960.000000"
 preserveAspectRatio="xMidYMid meet">
<metadata>
Created by potrace 1.14, written by Peter Selinger 2001-2017
</metadata>
<g transform="translate(0.000000,960.000000) scale(0.100000,-0.100000)"
fill="#000000" stroke="none">
<path d="M3228 7875 l-3 -1406 -1216 1216 c-669 669 -1221 1215 -1225 1213 -5
-1 -20 5 -34 14 -96 63 -280 79 -408 35 -41 -14 -82 -33 -91 -41 -10 -9 -22
-16 -28 -16 -20 0 -129 -118 -157 -170 -48 -89 -65 -161 -62 -264 2 -50 6
-101 9 -112 13 -50 54 -133 88 -179 35 -47 3285 -3298 3338 -3339 34 -26 113
-64 165 -80 46 -14 206 -15 261 -2 50 12 134 54 178 88 36 29 3305 3295 3332
3330 25 31 54 90 75 149 60 169 9 389 -120 516 -55 54 -160 115 -223 129 -151
35 -275 18 -401 -55 -47 -27 -325 -299 -1257 -1232 -984 -986 -1197 -1194
-1200 -1176 -3 12 -4 644 -4 1405 l1 1382 -508 0 -508 0 -2 -1405z"/>
<path d="M7908 7944 c-3 -3 -18 -7 -33 -10 -16 -3 -38 -10 -49 -16 -12 -6 -23
-11 -26 -11 -8 1 -79 -37 -103 -55 -47 -37 -3300 -3290 -3331 -3332 -52 -70
-72 -110 -91 -185 -21 -84 -22 -149 -4 -230 7 -33 13 -62 14 -65 0 -3 14 -32
30 -65 25 -51 89 -120 429 -462 220 -221 402 -406 404 -412 2 -6 7 -11 11 -11
4 0 570 -562 1257 -1248 687 -686 1271 -1263 1297 -1281 46 -31 103 -59 139
-67 10 -2 28 -7 41 -10 35 -9 169 -12 197 -4 14 4 45 14 70 21 25 7 61 23 80
35 19 11 39 22 43 22 8 1 101 94 131 132 18 22 63 115 56 115 -2 0 2 9 8 21
11 20 23 89 26 149 3 44 -20 159 -40 202 -10 21 -31 58 -47 83 -17 25 -566
582 -1221 1238 -655 656 -1192 1196 -1193 1200 -2 4 652 7 1453 6 1155 -1
1469 2 1518 12 55 11 148 51 184 79 45 34 148 145 135 145 -3 0 1 8 9 18 14
17 34 64 56 130 13 41 9 211 -7 270 -30 112 -143 246 -254 301 -70 35 -160 57
-227 56 -25 0 -48 4 -52 10 -5 6 -8 7 -8 0 0 -6 -104 -9 -297 -8 -164 2 -305
3 -313 3 -8 0 -87 -2 -175 -3 -98 -1 -163 2 -167 8 -5 7 -8 7 -8 0 0 -6 -104
-9 -297 -8 -164 2 -305 3 -313 3 -8 0 -87 -2 -175 -3 -98 -1 -163 2 -167 8 -5
7 -8 7 -8 0 0 -6 -104 -9 -297 -8 -164 2 -305 3 -313 3 -188 -4 -271 -2 -277
4 -5 5 -2 11 5 13 7 3 19 12 28 21 63 70 289 292 296 292 4 0 8 4 8 8 0 9 830
842 839 842 3 1 20 19 36 40 17 21 35 39 42 40 6 0 13 5 15 11 5 15 380 389
390 389 4 0 8 4 8 8 0 11 171 182 182 182 4 0 8 4 8 9 0 10 141 151 152 151 4
0 8 3 8 8 0 4 89 97 198 207 195 198 215 224 260 337 23 55 31 169 18 247 -9
53 -15 72 -54 149 -39 78 -131 177 -191 203 -17 8 -31 18 -31 23 0 4 -7 6 -15
2 -8 -3 -15 -1 -15 4 0 6 -8 10 -18 10 -10 0 -22 3 -26 7 -3 4 -16 8 -29 10
-40 7 -204 12 -209 7z"/>
</g>
</svg>
